<svg xmlns="http://www.w3.org/2000/svg" version="1.1" xmlns:xlink="http://www.w3.org/1999/xlink" xmlns:svgjs="http://svgjs.dev/svgjs" width="1440" height="560" preserveAspectRatio="none" viewBox="0 0 1440 560"><g mask="url(&quot;#SvgjsMask1002&quot;)" fill="none"><rect width="1440" height="560" x="0" y="0" fill="url(&quot;#SvgjsLinearGradient1003&quot;)"></rect><path d="M1440 0L1030.24 0L1440 71.42z" fill="rgba(255, 255, 255, .1)"></path><path d="M1030.24 0L1440 71.42L1440 109.03999999999999L901.45 0z" fill="rgba(255, 255, 255, .075)"></path><path d="M901.45 0L1440 109.03999999999999L1440 322.08L803.47 0z" fill="rgba(255, 255, 255, .05)"></path><path d="M803.47 0L1440 322.08L1440 380.93L321.35 0z" fill="rgba(255, 255, 255, .025)"></path><path d="M0 560L332.48 560L0 535.16z" fill="rgba(0, 0, 0, .1)"></path><path d="M0 535.16L332.48 560L917.14 560L0 357.27z" fill="rgba(0, 0, 0, .075)"></path><path d="M0 357.27L917.14 560L994.8199999999999 560L0 286.77z" fill="rgba(0, 0, 0, .05)"></path><path d="M0 286.77L994.8199999999999 560L1294.96 560L0 125.50999999999999z" fill="rgba(0, 0, 0, .025)"></path></g><defs><mask id="SvgjsMask1002"><rect width="1440" height="560" fill="#ffffff"></rect></mask><linearGradient x1="15.28%" y1="-39.29%" x2="84.72%" y2="139.29%" gradientUnits="userSpaceOnUse" id="SvgjsLinearGradient1003"><stop stop-color="#0e2a47" offset="0"></stop><stop stop-color="#00459e" offset="1"></stop></linearGradient></defs></svg>